<?xml version="1.0" encoding="utf-8"?>
<!-- Generator: Adobe Illustrator 22.0.0, SVG Export Plug-In . SVG Version: 6.00 Build 0)  -->
<svg version="1.1" id="Layer_1" xmlns="http://www.w3.org/2000/svg" xmlns:xlink="http://www.w3.org/1999/xlink" x="0px" y="0px"
	 viewBox="0 0 512 512" style="enable-background:new 0 0 512 512;" xml:space="preserve">
<style type="text/css">
	.st0{fill:#FFFFFF;}
</style>
<path class="st0" d="M305,256c0,27.1-21.9,49-49,49s-49-21.9-49-49s21.9-49,49-49S305,228.9,305,256z"/>
<path class="st0" d="M370.6,169.3c-2.4-6.4-6.1-12.2-11-16.9c-4.7-4.9-10.5-8.6-16.9-11c-5.2-2-13-4.4-27.3-5.1
	c-15.5-0.7-20.2-0.9-59.4-0.9c-39.3,0-43.9,0.1-59.4,0.9c-14.3,0.7-22.1,3.1-27.3,5.1c-6.4,2.4-12.2,6.1-16.9,11
	c-4.9,4.7-8.6,10.5-11,16.9c-2,5.2-4.4,13-5.1,27.3c-0.7,15.5-0.9,20.1-0.9,59.4c0,39.3,0.2,43.9,0.9,59.4c0.7,14.3,3,22.1,5.1,27.3
	c2.4,6.4,6.1,12.2,11,16.9c4.7,4.9,10.5,8.6,16.9,11c5.2,2,13,4.4,27.3,5.1c15.5,0.7,20.1,0.9,59.4,0.9c39.3,0,43.9-0.1,59.4-0.9
	c14.3-0.7,22.1-3,27.3-5.1c12.8-4.9,23-15.1,27.9-27.9c2-5.2,4.4-13,5.1-27.3c0.7-15.5,0.9-20.2,0.9-59.4c0-39.3-0.1-43.9-0.9-59.4
	C375,182.3,372.6,174.5,370.6,169.3z M256,331.5c-41.7,0-75.5-33.8-75.5-75.5s33.8-75.5,75.5-75.5c41.7,0,75.5,33.8,75.5,75.5
	S297.7,331.5,256,331.5z M334.5,195.2c-9.7,0-17.6-7.9-17.6-17.6s7.9-17.6,17.6-17.6s17.6,7.9,17.6,17.6
	C352.1,187.3,344.2,195.2,334.5,195.2z"/>
<path class="st0" d="M256,5C117.4,5,5,117.4,5,256s112.4,251,251,251s251-112.4,251-251S394.6,5,256,5z M399.3,315.4
	c-0.7,15.3-3.1,25.8-6.7,35c-7.5,19.4-22.8,34.7-42.2,42.2c-9.2,3.6-19.6,6-35,6.7c-15.4,0.7-20.3,0.9-59.4,0.9
	c-39.1,0-44.1-0.2-59.4-0.9c-15.3-0.7-25.8-3.1-35-6.7c-9.6-3.6-18.3-9.3-25.5-16.6c-7.3-7.2-13-15.9-16.6-25.5
	c-3.6-9.2-6-19.6-6.7-35c-0.7-15.4-0.9-20.3-0.9-59.4s0.2-44.1,0.9-59.4c0.7-15.3,3.1-25.8,6.7-35c3.6-9.6,9.3-18.3,16.6-25.5
	c7.2-7.3,15.9-13,25.5-16.6c9.2-3.6,19.6-6,35-6.7c15.4-0.7,20.3-0.9,59.4-0.9s44.1,0.2,59.4,0.9c15.3,0.7,25.8,3.1,35,6.7
	c9.6,3.6,18.3,9.3,25.5,16.6c7.3,7.2,13,15.9,16.6,25.5c3.6,9.2,6,19.6,6.7,35c0.7,15.4,0.9,20.3,0.9,59.4S400,300.1,399.3,315.4z"
	/>
</svg>
