<?xml version="1.0" encoding="utf-8"?>
<!-- Generator: Adobe Illustrator 22.0.0, SVG Export Plug-In . SVG Version: 6.00 Build 0)  -->
<svg version="1.1" id="Layer_1" xmlns="http://www.w3.org/2000/svg" xmlns:xlink="http://www.w3.org/1999/xlink" x="0px" y="0px"
	 viewBox="0 0 512 512" style="enable-background:new 0 0 512 512;" xml:space="preserve">
<style type="text/css">
	.st0{fill:#FFFFFF;}
</style>
<path class="st0" d="M256,13.9C118.3,13.9,8.2,124.1,8.2,261.7c0,137.7,110.1,247.8,247.8,247.8s247.8-110.1,247.8-247.8
	C503.8,124.1,393.7,13.9,256,13.9L256,13.9z M444.1,250.3c-9.2,13.8-25.2,18.4-45.9,18.4c-2.3,16.1-9.2,32.1-22.9,50.5
	c-27.5,32.1-59.7,55.1-98.7,66.5h-2.3c-39,9.2-80.3,9.2-121.6-4.6c-34.4-11.5-62-34.4-84.9-64.2c22.9,18.4,41.3,25.2,59.7,27.5V342
	c32.1,2.3,57.4-6.9,78-27.5v-2.3c-11.5,2.3-20.6-2.3-25.2-9.2c-2.3-6.9,0-11.5,4.6-13.8c1.8-4.1,5.1-7.4,9.2-9.2
	c-20.6,2.3-36.7-6.9-45.9-22.9c6.9-6.9,16.1-9.2,25.2-9.2c-25.2-6.9-39-20.7-41.3-39c6.9,0,13.8-2.3,20.6-2.3
	c-18.4-11.5-29.8-27.5-29.8-45.9c19.1,4.9,37.5,11.8,55.1,20.7c16.1,6.9,32.1,13.8,43.6,22.9c11.5,4.6,18.4,11.5,27.5,20.7v-2.3
	c6.9-18.4,13.8-36.7,27.5-55.1c4.6-6.9,9.2-16.1,18.4-22.9c2.3-4.6,6.9-6.9,11.5-11.5c2.3,2.3,0,4.6-4.6,11.5
	c11.5-9.2,20.6-13.8,29.8-13.8c2.3,2.3-2.3,6.9-11.5,11.5c6.9-2.3,16.1-4.6,25.2-4.6c2.3,0,4.6,2.3,2.3,4.6
	c-2.3,4.6-11.5,9.2-29.8,11.5v2.3c18.4,0,36.7,4.6,50.5,18.4c14.6,14.5,24.9,32.8,29.8,52.8c13.8,4.6,27.5,4.6,43.6,0
	c-4.6,11.5-16.1,16.1-39,18.4v2.3C423.5,252.6,437.3,252.6,444.1,250.3L444.1,250.3z"/>
</svg>
